<svg xmlns="http://www.w3.org/2000/svg" viewBox="0 0 19.66 28.26"><defs><style>.cls-1{fill:#231f20;}</style></defs><g id="Layer_2" data-name="Layer 2"><g id="Layer_1-2" data-name="Layer 1"><path class="cls-1" d="M3.82,6a6,6,0,0,0,6,6h.24V3.08c0-.4.73.74,1.08,1.17a5.92,5.92,0,0,0,3.17,2.17,10.27,10.27,0,0,1,1.43.67A6.36,6.36,0,0,0,15.85,6a6,6,0,1,0-12,0Z"/><path class="cls-1" d="M11.51,7.1v8.26h0v2.15c0,1.89-2,3.43-4.55,3.43S2.41,19.4,2.41,17.51s2-3.42,4.55-3.42a5.41,5.41,0,0,1,3.1.92c0-.1-.06-.23-.09-.38C9.65,13,7.44,12,5.22,12.19,3.9,12.23,0,14.38,0,17.56c0,5.91,4.4,10.7,9.83,10.7s9.83-4.79,9.83-10.7A11,11,0,0,0,11.51,7.1Z"/></g></g></svg>