<svg width="20" height="20" viewBox="0 0 20 20" fill="none" xmlns="http://www.w3.org/2000/svg">
<path d="M9.99993 2.30762C5.75399 2.30762 2.30762 5.75399 2.30762 9.99993C2.30762 14.255 5.75399 17.6922 9.99993 17.6922C14.255 17.6922 17.6922 14.2459 17.6922 9.99993C17.6922 5.75399 14.255 2.30762 9.99993 2.30762ZM13.5198 13.4095C13.3912 13.6393 13.0971 13.7036 12.8765 13.5658C11.0568 12.4629 8.7868 12.2148 6.10322 12.8305C5.8459 12.8765 5.58857 12.7203 5.53342 12.4629C5.51504 12.2056 5.67128 11.9483 5.90104 11.8931C8.84194 11.2222 11.3785 11.5071 13.4003 12.7478C13.6393 12.8857 13.7128 13.1798 13.5658 13.4095H13.5198ZM14.4848 11.3141C14.301 11.5899 13.9334 11.6818 13.6577 11.5163C11.5899 10.2297 8.43757 9.86207 5.99294 10.6157C5.69885 10.7076 5.34962 10.5238 5.25771 10.2205C5.16581 9.91721 5.34962 9.57717 5.68047 9.48527C8.47433 8.65814 11.9483 9.0717 14.3194 10.4962C14.5951 10.68 14.687 11.0476 14.5032 11.3233L14.4848 11.3141ZM14.5767 9.12684C12.0953 7.65639 7.99643 7.51854 5.62533 8.23538C5.25771 8.35486 4.87172 8.14348 4.75225 7.75748C4.63277 7.38987 4.84415 6.97631 5.23014 6.85683C7.95048 6.0297 12.4721 6.19513 15.3211 7.88615C15.6612 8.08834 15.7806 8.52947 15.5693 8.86951C15.3855 9.21875 14.9259 9.32903 14.5951 9.12684H14.5767Z" fill="black"/>
</svg>
