<svg width="89" height="89" viewBox="0 0 89 89" fill="none" xmlns="http://www.w3.org/2000/svg">
<circle opacity="0.2" cx="44.5" cy="44.5" r="44.5" fill="white"/>
<path d="M44.4999 24.2177C50.1936 24.2177 54.7343 28.6633 54.7343 34.0556C54.7342 35.4109 54.2664 37.1144 53.4335 38.8633C52.6074 40.5978 51.4661 42.2829 50.2235 43.5937C49.387 44.4764 49.0252 45.7111 49.0887 46.834C49.1525 47.9597 49.6686 49.2063 50.8759 49.8662L60.4833 55.1172C60.763 55.3574 61.1271 55.7957 61.4315 56.3222C61.7729 56.9128 61.9109 57.3899 61.911 57.6172V61.9111H27.0887V57.6172C27.0888 57.3899 27.2269 56.9128 27.5682 56.3222C27.8725 55.7959 28.2368 55.3574 28.5165 55.1172L38.1239 49.8662C39.3312 49.2063 39.8482 47.9597 39.912 46.834C39.9755 45.711 39.6129 44.4765 38.7762 43.5937C37.5336 42.2829 36.3924 40.5978 35.5663 38.8633C34.7334 37.1144 34.2665 35.4109 34.2665 34.0556C34.2665 28.6634 38.8062 24.2178 44.4999 24.2177Z" stroke="#B3B3B3" stroke-width="2.5"/>
</svg>
